<svg width="428" height="189" viewBox="0 0 428 189" fill="none" xmlns="http://www.w3.org/2000/svg">
<path d="M134.383 72.9871L136.696 67.9992C136.12 68.1262 135.512 68.2531 134.871 68.3799C134.295 68.5069 133.687 68.6339 133.047 68.7607C131.894 69.0787 130.774 69.3327 129.685 69.5228C128.597 69.7129 127.413 69.8068 126.133 69.8045C121.973 69.7972 118.68 68.2554 116.253 65.1791C113.826 62.1028 112.618 57.7807 112.628 52.2127L112.672 27.2527L110.656 27.2492C110.016 27.248 108.96 27.4062 107.487 27.7236C106.079 27.9771 104.734 28.2947 103.453 28.6765L102.493 28.9628L102.11 28.3861L104.043 20.8055L108.363 20.9091C110.539 20.977 112.524 20.5325 114.317 19.5756C116.111 18.5548 117.554 17.1493 118.645 15.3592C119.736 13.5692 120.379 11.5863 120.575 9.41064L120.58 6.91465C121.732 6.91668 122.884 6.88671 124.036 6.82474C125.188 6.76277 126.212 6.73258 127.108 6.73416L127.083 20.8461L129.387 20.8502C131.307 20.8536 133.707 20.7298 136.588 20.4789C139.468 20.164 141.773 19.784 143.502 19.3391L143.885 19.9158L141.855 27.4962L127.071 27.4701L127.051 38.7981C127.046 41.9981 126.817 44.6857 126.365 46.8609C125.978 48.9722 125.366 51.0832 124.53 53.1937C124.144 54.409 123.822 55.4004 123.565 56.168C123.371 56.9357 123.274 57.7675 123.272 58.6635C123.27 60.1355 123.62 61.2561 124.322 62.0253C125.089 62.7947 126.112 63.1805 127.392 63.1828C128.608 63.1849 130.114 62.5155 131.908 61.1747C133.702 59.8339 135.465 58.141 137.197 56.096C138.929 53.9871 140.308 51.9415 141.336 49.9593L141.722 48.904L147.575 50.1623L142.35 73.3851L134.671 73.3716L134.383 72.9871ZM186.563 73.1751L189.068 67.8035C188.236 67.9301 187.404 68.0886 186.571 68.2791C185.803 68.4698 185.003 68.6284 184.17 68.7549C183.018 69.1369 181.833 69.4228 180.617 69.6126C179.465 69.8026 178.248 69.8964 176.968 69.8942C172.104 69.8856 167.722 68.8539 163.822 66.799C159.922 64.6801 156.855 61.7627 154.621 58.0468C152.452 54.2669 151.372 49.977 151.38 45.177C151.389 40.249 152.484 35.867 154.667 32.0308C156.914 28.1948 159.991 25.2242 163.899 23.1191C167.807 21.014 172.224 19.9657 177.152 19.9744C182.144 19.9832 186.527 21.047 190.299 23.1656C194.135 25.2844 197.106 28.2336 199.211 32.0134C201.317 35.7291 202.397 40.051 202.452 44.9791C202.452 45.3631 202.419 45.811 202.354 46.3229C202.353 46.7709 202.321 47.1869 202.256 47.5708L166.064 47.5069C166.314 50.7074 166.917 53.4924 167.873 55.8621C168.829 58.2318 170.106 60.0901 171.703 61.4369C173.365 62.7198 175.252 63.3632 177.364 63.3669C179.028 63.3698 180.949 62.7332 183.127 61.457C185.37 60.117 187.453 58.5207 189.376 56.668C191.299 54.8154 192.678 53.1219 193.513 51.5873L193.705 51.2037L200.23 52.9432L194.53 73.5732L186.754 73.5595L186.563 73.1751ZM187.673 42.169C187.423 38.9686 186.82 36.2155 185.864 33.9098C184.972 31.5402 183.759 29.7461 182.225 28.5274C180.756 27.2448 178.965 26.6016 176.853 26.5979C174.805 26.5943 173.012 27.2311 171.473 28.5084C169.999 29.7218 168.78 31.5117 167.816 33.878C166.916 36.1804 166.335 38.9314 166.073 42.1309L187.673 42.169ZM249.941 41.4148C248.857 39.2369 247.357 37.0583 245.441 34.8789C243.525 32.6995 241.512 30.904 239.402 29.4922C237.293 28.0805 235.406 27.3732 233.742 27.3702C231.886 27.367 230.221 28.1 228.746 29.5694C227.272 31.0388 226.116 33.1168 225.279 35.8033C224.506 38.49 224.117 41.5613 224.111 45.0173C224.105 48.5373 224.547 51.6741 225.438 54.4276C226.329 57.1812 227.542 59.2954 229.075 60.7701C230.673 62.2449 232.495 62.9841 234.543 62.9877C236.527 62.9912 238.673 62.163 240.98 60.5031C243.287 58.8431 245.37 56.8628 247.23 54.5621C249.154 52.2615 250.502 50.1838 251.273 48.3292L258.278 50.1655L251.804 73.6742L243.74 73.66L243.549 73.2756L246.439 67.8087C244.646 68.1255 242.886 68.5064 241.157 68.9514C240.004 69.2694 238.852 69.5233 237.699 69.7133C236.547 69.9033 235.299 69.9971 233.955 69.9947C229.283 69.9864 225.029 68.9229 221.192 66.8042C217.42 64.6855 214.417 61.7042 212.184 57.8603C210.015 54.0164 208.935 49.6945 208.943 44.8945C208.952 40.0945 210.047 35.8085 212.23 32.0363C214.412 28.2642 217.362 25.3254 221.077 23.2199C224.857 21.0506 229.051 19.97 233.659 19.9781C235.515 19.9814 237.115 20.1122 238.458 20.3705C239.802 20.6289 241.145 20.9833 242.489 21.4337C243 21.6266 243.48 21.7874 243.928 21.9162C244.439 22.0451 244.919 22.1419 245.367 22.2067L242.784 17.0182L243.073 16.6347L250.945 16.6486L256.568 39.6025L249.941 41.4148ZM270.43 68.139C270.76 62.6996 270.929 57.5799 270.937 52.7799L271.016 8.23595C270.056 8.23426 267.879 8.67842 264.485 9.56843L263.237 9.95023L262.95 9.37372L264.787 1.88895L273.811 1.90486C275.667 1.90814 277.811 1.84792 280.243 1.72421C282.739 1.53661 284.564 1.34783 285.716 1.15786L286.003 1.63837C285.872 3.23814 285.74 5.76591 285.606 9.22168C285.471 12.9974 285.402 16.0053 285.398 18.2453L285.381 27.7493C286.858 25.2559 288.749 23.3712 291.055 22.0953C293.425 20.8195 296.147 20.1843 299.219 20.1897C303.059 20.1965 306.385 21.0663 309.198 22.7993C312.011 24.5323 314.151 27.032 315.617 30.2986C317.147 33.5653 317.908 37.4067 317.9 41.8227L317.863 62.8467C318.631 62.848 320.808 62.4038 324.394 61.5142C324.65 61.4506 324.874 61.387 325.066 61.3234C325.258 61.2597 325.418 61.196 325.546 61.1322L325.929 61.7089L324.092 69.1936L302.876 69.1562L302.878 68.1962C303.206 63.3328 303.376 58.2131 303.385 52.8371L303.403 42.5651C303.411 38.0211 302.649 34.5638 301.117 32.1931C299.65 29.7585 297.572 28.5388 294.884 28.5341C293.028 28.5308 291.363 29.1679 289.888 30.4453C288.478 31.6588 287.355 33.4168 286.519 35.7193C285.747 38.022 285.358 40.6453 285.353 43.5893L285.337 52.8053C285.329 57.6053 285.48 62.7255 285.79 68.1661L285.788 69.1261L270.428 69.099L270.43 68.139ZM0.982808 182.664C3.80332 180.109 6.97724 176.755 10.5046 172.601C14.0319 168.447 17.3034 164.197 20.3191 159.85C20.4474 159.658 20.5757 159.467 20.7041 159.275C20.8964 159.083 21.0568 158.859 21.1853 158.604L26.6705 151.125L17.861 138.342L17.0949 137.284C14.4138 133.376 11.796 129.851 9.2415 126.71C6.75114 123.506 4.16456 120.43 1.48176 117.481L1.48362 116.425L32.8756 116.48L34.3985 123.875L33.9175 124.45C32.702 124.192 31.3264 123.933 29.7909 123.675C28.2553 123.416 27.0716 123.286 26.2396 123.284L38.9737 142.507L42.9198 136.754C44.2672 134.836 45.7113 132.503 47.2522 129.754C47.9581 128.667 48.6 127.58 49.1779 126.493C49.82 125.342 50.3658 124.287 50.8155 123.328C49.9835 123.326 48.7993 123.452 47.2629 123.706C45.7904 123.959 44.478 124.213 43.3255 124.467L42.7507 123.794L44.2036 116.5L68.6835 116.543L68.6818 117.503C67.7199 118.59 66.7259 119.74 65.6997 120.954C64.6736 122.168 63.6474 123.414 62.6211 124.693C60.441 127.057 58.3889 129.389 56.4648 131.69C54.6047 133.99 52.7443 136.515 50.8834 139.264L45.2061 146.838L54.494 160.486C57.0473 164.267 60.8784 169.362 65.9871 175.771C67.839 178.078 69.7549 180.417 71.7347 182.789L71.733 183.749L40.4371 183.694L39.0099 176.395L39.5871 175.724C40.8028 175.918 42.1463 176.177 43.6177 176.499C45.1533 176.758 46.3051 176.888 47.0731 176.889L32.9028 155.456L27.4161 163.799C26.582 165.013 25.7798 166.26 25.0095 167.538C24.3034 168.753 23.5972 169.968 22.8911 171.183C22.3774 172.142 21.8637 173.101 21.35 174.06C20.8364 174.955 20.3548 175.882 19.9051 176.841C20.4171 176.842 21.1212 176.78 22.0174 176.653C22.9137 176.527 23.8099 176.368 24.7063 176.178C25.2184 176.115 25.6985 176.052 26.1466 175.988C26.6588 175.861 27.107 175.766 27.4911 175.703L28.0659 176.376L26.5171 183.669L0.981115 183.624L0.982808 182.664ZM112.239 154.444C110.707 152.137 108.631 149.99 106.01 148.001C103.454 146.013 100.801 144.44 98.0507 143.283C95.3648 142.062 93.0299 141.45 91.0459 141.447C89.1259 141.443 87.6532 141.825 86.6279 142.591C85.6666 143.293 85.1849 144.252 85.1828 145.468C85.1808 146.62 85.6269 147.645 86.5214 148.543C87.4799 149.376 88.7905 150.147 90.4533 150.854C92.1161 151.561 94.4187 152.333 97.3612 153.17C97.5531 153.234 97.777 153.299 98.0329 153.363C98.2888 153.428 98.5447 153.492 98.8005 153.556C99.1844 153.621 99.5363 153.718 99.856 153.846C100.24 153.975 100.624 154.104 101.007 154.232C105.549 155.52 109.163 156.839 111.848 158.187C114.534 159.536 116.611 161.204 118.08 163.19C119.612 165.177 120.376 167.643 120.371 170.587C120.362 175.387 118.628 178.999 115.167 181.425C111.771 183.851 107.257 185.059 101.625 185.05C99.641 185.046 97.6893 184.883 95.7699 184.559C93.8503 184.3 91.9629 183.944 90.1077 183.493C89.1481 183.299 88.1884 183.138 87.2286 183.008C86.2689 182.814 85.4052 182.685 84.6373 182.62L87.3158 188L87.0271 188.384L79.3471 188.37L73.1474 165.511L78.9103 163.889C80.7619 166.389 83.1257 168.761 86.0018 171.006C88.9418 173.251 92.0106 175.081 95.2081 176.494C98.4697 177.844 101.413 178.521 104.037 178.526C106.085 178.529 107.653 178.18 108.742 177.478C109.832 176.776 110.377 175.753 110.38 174.409C110.382 173.257 109.936 172.264 109.041 171.431C108.211 170.597 106.868 169.859 105.013 169.215C103.158 168.508 100.632 167.736 97.433 166.898L96.9532 166.801C92.5391 165.705 88.7653 164.451 85.6318 163.037C82.4984 161.56 80.0376 159.731 78.2495 157.552C76.4614 155.309 75.5702 152.619 75.5757 149.484C75.584 144.748 77.2864 141.135 80.6828 138.644C84.0793 136.09 88.5616 134.818 94.1296 134.828C96.1136 134.832 97.9373 134.995 99.6007 135.318C101.264 135.577 102.928 135.964 104.591 136.479C105.038 136.607 105.454 136.736 105.838 136.865C106.222 136.93 106.574 136.994 106.894 137.059L104.311 131.87L104.599 131.487L112.567 131.501L118.098 152.822L112.239 154.444ZM153.868 188.022L156.181 183.034C155.604 183.161 154.996 183.288 154.356 183.414C153.78 183.541 153.172 183.668 152.531 183.795C151.379 184.113 150.258 184.367 149.17 184.557C148.082 184.747 146.897 184.841 145.617 184.839C141.457 184.832 138.164 183.29 135.738 180.214C133.311 177.137 132.103 172.815 132.112 167.247L132.156 142.287L130.14 142.284C129.5 142.283 128.444 142.441 126.972 142.758C125.563 143.012 124.219 143.329 122.938 143.711L121.977 143.997L121.594 143.421L123.528 135.84L127.848 135.944C130.024 136.012 132.008 135.567 133.802 134.61C135.596 133.589 137.038 132.184 138.129 130.394C139.221 128.604 139.864 126.621 140.06 124.445L140.064 121.949C141.216 121.951 142.368 121.921 143.521 121.859C144.673 121.797 145.697 121.767 146.593 121.769L146.568 135.881L148.872 135.885C150.792 135.888 153.192 135.764 156.072 135.513C158.953 135.199 161.258 134.819 162.986 134.374L163.369 134.95L161.34 142.531L146.556 142.505L146.536 153.833C146.53 157.033 146.302 159.72 145.85 161.895C145.462 164.007 144.85 166.118 144.015 168.228C143.629 169.444 143.307 170.435 143.049 171.203C142.856 171.97 142.759 172.802 142.757 173.698C142.754 175.17 143.105 176.291 143.807 177.06C144.574 177.829 145.597 178.215 146.877 178.217C148.093 178.219 149.598 177.55 151.393 176.209C153.187 174.868 154.95 173.176 156.682 171.131C158.413 169.022 159.793 166.976 160.82 164.994L161.206 163.939L167.06 165.197L161.835 188.42L154.155 188.406L153.868 188.022ZM217.82 153.958L211.384 156.155C210.236 153.977 208.895 152.023 207.362 150.292C205.829 148.497 204.2 147.118 202.474 146.155C200.811 145.128 199.244 144.614 197.772 144.611C196.492 144.609 195.339 145.151 194.313 146.237C193.351 147.323 192.613 148.89 192.097 150.937C191.581 152.984 191.321 155.352 191.317 158.04L191.282 177.624C192.114 177.625 193.522 177.436 195.507 177.055C197.556 176.675 199.252 176.294 200.597 175.912L200.884 176.489L199.047 183.973L176.391 183.933L176.393 182.973C176.722 177.534 176.891 172.414 176.9 167.614L176.944 142.27C175.984 142.269 173.808 142.713 170.414 143.603L169.165 143.985L168.878 143.408L170.716 135.923L178.779 135.937C180.635 135.941 182.78 135.881 185.212 135.757C187.644 135.569 189.468 135.38 190.685 135.19L190.876 135.671L190.68 137.974C190.678 138.806 190.645 139.67 190.579 140.566C190.578 141.398 190.576 142.294 190.575 143.254C191.539 140.504 193.015 138.395 195.002 136.926C196.988 135.394 199.038 134.629 201.15 134.633C201.918 134.634 202.622 134.732 203.261 134.925C203.901 135.118 204.509 135.343 205.084 135.6C205.34 135.728 205.596 135.857 205.851 135.985C206.107 136.114 206.363 136.21 206.619 136.275L204.42 131.183L204.709 130.799L212.581 130.813L217.82 153.958ZM256.11 188.298L258.615 182.926C257.783 183.053 256.951 183.211 256.118 183.402C255.35 183.593 254.55 183.751 253.718 183.878C252.565 184.26 251.38 184.546 250.164 184.735C249.012 184.925 247.796 185.019 246.516 185.017C241.652 185.008 237.269 183.977 233.369 181.922C229.469 179.803 226.402 176.886 224.168 173.17C221.999 169.39 220.919 165.1 220.927 160.3C220.936 155.372 222.032 150.99 224.214 147.154C226.461 143.318 229.538 140.347 233.446 138.242C237.354 136.137 241.772 135.089 246.7 135.097C251.692 135.106 256.074 136.17 259.846 138.288C263.682 140.407 266.653 143.356 268.758 147.136C270.864 150.852 271.944 155.174 272 160.102C271.999 160.486 271.966 160.934 271.901 161.446C271.9 161.894 271.868 162.31 271.803 162.694L235.611 162.63C235.861 165.83 236.464 168.615 237.42 170.985C238.376 173.355 239.653 175.213 241.25 176.56C242.912 177.843 244.799 178.486 246.911 178.49C248.575 178.493 250.496 177.856 252.674 176.58C254.917 175.24 257 173.643 258.923 171.791C260.846 169.938 262.225 168.245 263.06 166.71L263.253 166.327L269.777 168.066L264.077 188.696L256.301 188.682L256.11 188.298ZM257.22 157.292C256.97 154.091 256.367 151.338 255.411 149.033C254.519 146.663 253.306 144.869 251.773 143.65C250.303 142.368 248.512 141.724 246.4 141.721C244.352 141.717 242.559 142.354 241.021 143.631C239.546 144.845 238.327 146.635 237.363 149.001C236.463 151.303 235.882 154.054 235.62 157.254L257.22 157.292ZM292.388 185.098C287.396 185.089 283.527 183.898 280.779 181.525C278.031 179.153 276.661 175.982 276.668 172.014C276.673 168.942 277.509 166.416 279.177 164.435C280.908 162.39 283.279 160.858 286.289 159.839C289.363 158.757 293.108 158.027 297.525 157.651C300.789 157.401 303.382 156.989 305.303 156.417C307.224 155.844 308.633 155.047 309.531 154.024C310.429 152.938 310.88 151.53 310.883 149.802C310.887 147.242 310.251 145.257 308.973 143.847C307.76 142.437 306.001 141.73 303.697 141.726C302.097 141.723 300.208 142.36 298.03 143.636C295.915 144.848 293.865 146.444 291.877 148.425C289.954 150.342 288.446 152.291 287.355 154.273L287.162 154.657L281.308 153.494L287.107 131.617L294.883 131.63L295.17 132.015L292.858 136.811C293.882 136.62 295.258 136.399 296.987 136.146C298.331 135.828 299.612 135.607 300.828 135.481C302.044 135.291 303.292 135.197 304.572 135.199C310.652 135.21 315.385 136.946 318.771 140.408C322.221 143.87 323.941 148.674 323.93 154.817L323.889 177.857C324.721 177.859 326.93 177.415 330.516 176.525C330.708 176.461 330.9 176.398 331.092 176.334C331.348 176.271 331.54 176.207 331.668 176.143L332.051 176.72L330.118 184.204L310.438 184.17L310.44 183.21C310.505 182.506 310.538 181.802 310.54 181.098C310.541 180.394 310.574 179.658 310.639 178.89C310.704 178.442 310.737 177.994 310.738 177.546C310.739 177.098 310.739 176.682 310.74 176.298C309.071 179.111 306.635 181.283 303.433 182.813C300.23 184.344 296.548 185.105 292.388 185.098ZM298.162 177.62C300.274 177.624 302.291 177.051 304.213 175.903C306.199 174.69 307.77 173.029 308.926 170.919C310.145 168.809 310.757 166.442 310.762 163.818L310.868 157.962C309.971 158.921 308.753 159.783 307.216 160.548C305.679 161.249 303.918 161.726 301.933 161.979C298.348 162.484 295.659 163.408 293.864 164.748C292.134 166.089 291.267 168.04 291.262 170.6C291.258 172.776 291.895 174.505 293.173 175.787C294.451 177.006 296.114 177.616 298.162 177.62ZM427.413 176.888L425.576 184.373L404.456 184.336L404.457 183.376C404.723 177.936 404.86 172.816 404.869 168.016L404.887 157.744C404.895 153.136 404.197 149.647 402.793 147.277C401.389 144.906 399.375 143.719 396.751 143.714C395.023 143.711 393.486 144.252 392.14 145.338C390.859 146.424 389.832 147.99 389.06 150.036C388.353 152.083 387.996 154.514 387.991 157.33L387.973 167.986C387.964 173.106 388.114 178.227 388.425 183.347L388.424 184.307L373.064 184.28L373.065 183.32C373.395 178.201 373.564 173.081 373.573 167.961L373.591 157.689C373.599 153.081 372.901 149.592 371.497 147.221C370.093 144.851 368.111 143.663 365.551 143.659C363.823 143.656 362.286 144.293 360.94 145.571C359.594 146.784 358.535 148.543 357.763 150.845C356.991 153.148 356.602 155.771 356.597 158.715L356.581 167.931C356.572 172.731 356.723 177.851 357.034 183.292L357.032 184.252L341.672 184.225L341.674 183.265C342.003 177.825 342.172 172.706 342.181 167.906L342.225 142.562C341.265 142.56 339.089 143.004 335.695 143.894L334.446 144.276L334.159 143.7L335.996 136.215L344.06 136.229C345.916 136.232 348.061 136.172 350.493 136.048C352.925 135.861 354.749 135.672 355.966 135.482L356.157 135.962C356.156 136.474 356.123 137.018 356.058 137.594C356.057 138.17 356.024 138.778 355.959 139.418L355.76 143.354C357.237 140.732 359.16 138.752 361.53 137.412C363.965 136.008 366.718 135.309 369.79 135.314C373.438 135.321 376.541 136.158 379.098 137.827C381.719 139.495 383.731 141.867 385.133 144.941C386.547 141.808 388.567 139.443 391.194 137.848C393.885 136.189 397.022 135.362 400.606 135.369C404.51 135.376 407.869 136.245 410.682 137.978C413.494 139.711 415.634 142.211 417.1 145.478C418.631 148.744 419.392 152.586 419.384 157.002L419.347 178.026C420.243 178.027 422.388 177.583 425.781 176.693C426.037 176.63 426.261 176.566 426.454 176.502C426.71 176.439 426.934 176.375 427.126 176.312L427.413 176.888Z" fill="url(#paint0_radial_1_4)"/>
<defs>
<radialGradient id="paint0_radial_1_4" cx="0" cy="0" r="1" gradientUnits="userSpaceOnUse" gradientTransform="translate(214.364 88.0002) rotate(88.1248) scale(163.628 164.337)">
<stop offset="0.280456" stop-color="#A200A8"/>
<stop offset="0.552268" stop-color="#5923AA"/>
<stop offset="0.819076" stop-color="#1A6DB2"/>
</radialGradient>
</defs>
</svg>
